# xmcd CD database file
# Copyright (C) 1997 Ti Kan
#
# Track frame offsets:
#  150
#  14540
#  41490
#  64895
#  76832
#  93517
#  107532
#  120170
#  134627
#  150625
#  157987
#  177240
#  191012
#  206752
#  220555
#  237397
#  250397
#  262512
#  276687
#  292962
#
# Disc length: 4235 seconds
#
# Revision: 1
# Processed by: cddbd v1.4b41PL1 Copyright (c) Steve Scherf et al.
# Submitted via: CDWizzard Release:4.32
#
DISCID=17108914
DTITLE=Motorhead - Best 20
DYEAR=1900
DGENRE=
TTITLE0=Motorhead
TTITLE1=On Parole
TTITLE2=Overkill
TTITLE3=No Class
TTITLE4=Bomber
TTITLE5=Dead Men tTell No Tales
TTITLE6=Ace Of Spades
TTITLE7=(We Are) The Road Crew
TTITLE8=Jailbait
TTITLE9=Bite The Bullet
TTITLE10=The Chase Is Better Than The Catch
TTITLE11=Stay Clean
TTITLE12=Metropolis
TTITLE13=The Hammer
TTITLE14=Iron Horse
TTITLE15=Iron Fist
TTITLE16=I'm The Doctor
TTITLE17=Go To Hell
TTITLE18=America
TTITLE19=Another Perfect Day
EXTD=
EXTT0=
EXTT1=
EXTT2=
EXTT3=
EXTT4=
EXTT5=
EXTT6=
EXTT7=
EXTT8=
EXTT9=
EXTT10=
EXTT11=
EXTT12=
EXTT13=
EXTT14=
EXTT15=
EXTT16=
EXTT17=
EXTT18=
EXTT19=
PLAYORDER=
